<?xml version="1.0" encoding="utf-8"?>
<!-- Generator: Adobe Illustrator 14.0.0, SVG Export Plug-In . SVG Version: 6.00 Build 43363)  -->
<!DOCTYPE svg PUBLIC "-//W3C//DTD SVG 1.0//EN" "http://www.w3.org/TR/2001/REC-SVG-20010904/DTD/svg10.dtd">
<svg version="1.0" id="Layer_1" xmlns="http://www.w3.org/2000/svg" xmlns:xlink="http://www.w3.org/1999/xlink" x="0px" y="0px"
	 width="97.72px" height="100px" viewBox="0 0 97.72 100" enable-background="new 0 0 97.72 100" xml:space="preserve">
<path d="M60.603,21.708c-0.665,1.04-1.043,2.932,0.374,3.969l4.96,4.021l17.25-25.45l-5.374-3.602
	c-1.54-0.488-3.313,0.054-4.164,1.093L60.603,21.708z"/>
<path d="M71.048,34.93c1.461,2.076,0.801,3.93-0.258,6.568c0,0-0.063,0.191-0.186,0.518c-1.805,2.938-5.727,9.054-10.851,15.535
	c-7.021,7.01-13.671,12.237-15.917,13.95c-2.467,1.303-4.228,2.121-6.421,0.897c-2.035-1.138-2.604-1.601-4.288-3.148L9.555,89.009
	c1.719,1.909,5.437,4.755,9.47,6.99c3.827,2.072,7.993,3.729,10.869,4c10.858-4.271,31.322-14.146,44.202-30.026l-0.004-0.058
	C87.479,55.525,94.723,35.383,97.72,24.583c-0.566-2.834-2.646-6.804-5.104-10.396c-2.643-3.778-5.859-7.183-7.937-8.695
	L67.476,30.99C69.188,32.504,69.707,33.022,71.048,34.93z"/>
<path d="M27.168,63.343c-1.179-1.306-3.019-0.73-3.984,0.036L4.672,78.425c-0.942,0.954-1.299,2.775-0.654,4.257l4.143,4.971
	l23.522-19.794L27.168,63.343z"/>
<path d="M35.732,11.828c-1.79,1.79-3.582,3.581-5.371,5.371c-5.57-5.57-11.142-11.141-16.712-16.711c-0.65-0.65-1.734-0.649-2.385,0
	C7.673,4.08,4.08,7.671,0.488,11.264c-0.65,0.65-0.65,1.735,0,2.385C6.059,19.22,11.63,24.79,17.2,30.36
	c-1.791,1.79-3.581,3.581-5.371,5.371c-1.019,1.019-0.295,2.919,1.192,2.879c7.755-0.211,15.513-0.423,23.269-0.635
	c0.938-0.025,1.662-0.749,1.686-1.686c0.213-7.756,0.424-15.513,0.635-23.269C38.65,11.533,36.751,10.809,35.732,11.828z"/>
</svg>
